<?xml version="1.0" encoding="UTF-8"?>
<svg xmlns="http://www.w3.org/2000/svg" viewBox="0 0 2440 1050" font-family="ui-sans-serif, system-ui, sans-serif">
<defs><marker id="arrow" viewBox="0 0 10 10" refX="9" refY="5" markerWidth="6" markerHeight="6" orient="auto"><path d="M0,0 L10,5 L0,10 Z" fill="#6b7280"/></marker></defs>
<text x="1220" y="30" text-anchor="middle" font-size="20" font-weight="bold">Davis blueprint — lea-hadamard progress 2026-05-03_1302Z</text>
<path d="M1100,340 Q1160,280 1220,260" stroke="#6b7280" stroke-width="1.2" fill="none" marker-end="url(#arrow)"/>
<path d="M1340,340 Q1280,280 1220,260" stroke="#6b7280" stroke-width="1.2" fill="none" marker-end="url(#arrow)"/>
<path d="M140,860 Q680,540 1220,260" stroke="#6b7280" stroke-width="1.2" fill="none" marker-end="url(#arrow)"/>
<path d="M1220,210 Q1220,150 1220,130" stroke="#6b7280" stroke-width="1.2" fill="none" marker-end="url(#arrow)"/>
<path d="M140,860 Q680,475 1220,130" stroke="#6b7280" stroke-width="1.2" fill="none" marker-end="url(#arrow)"/>
<path d="M2060,860 Q1520,800 980,780" stroke="#6b7280" stroke-width="1.2" fill="none" marker-end="url(#arrow)"/>
<path d="M980,730 Q1040,670 1100,650" stroke="#6b7280" stroke-width="1.2" fill="none" marker-end="url(#arrow)"/>
<path d="M1100,600 Q1220,540 1340,520" stroke="#6b7280" stroke-width="1.2" fill="none" marker-end="url(#arrow)"/>
<path d="M860,860 Q1100,670 1340,520" stroke="#6b7280" stroke-width="1.2" fill="none" marker-end="url(#arrow)"/>
<path d="M1580,860 Q1460,670 1340,520" stroke="#6b7280" stroke-width="1.2" fill="none" marker-end="url(#arrow)"/>
<path d="M1340,860 Q1340,670 1340,520" stroke="#6b7280" stroke-width="1.2" fill="none" marker-end="url(#arrow)"/>
<path d="M1340,860 Q1280,800 1220,780" stroke="#6b7280" stroke-width="1.2" fill="none" marker-end="url(#arrow)"/>
<path d="M1580,860 Q1400,800 1220,780" stroke="#6b7280" stroke-width="1.2" fill="none" marker-end="url(#arrow)"/>
<path d="M1820,860 Q1760,800 1700,780" stroke="#6b7280" stroke-width="1.2" fill="none" marker-end="url(#arrow)"/>
<path d="M1340,860 Q1520,800 1700,780" stroke="#6b7280" stroke-width="1.2" fill="none" marker-end="url(#arrow)"/>
<path d="M1700,730 Q1520,670 1340,650" stroke="#6b7280" stroke-width="1.2" fill="none" marker-end="url(#arrow)"/>
<path d="M1580,860 Q1160,800 740,780" stroke="#6b7280" stroke-width="1.2" fill="none" marker-end="url(#arrow)"/>
<path d="M1100,860 Q920,800 740,780" stroke="#6b7280" stroke-width="1.2" fill="none" marker-end="url(#arrow)"/>
<path d="M2060,860 Q1400,800 740,780" stroke="#6b7280" stroke-width="1.2" fill="none" marker-end="url(#arrow)"/>
<path d="M1700,730 Q1400,540 1100,390" stroke="#6b7280" stroke-width="1.2" fill="none" marker-end="url(#arrow)"/>
<path d="M1340,600 Q1220,475 1100,390" stroke="#6b7280" stroke-width="1.2" fill="none" marker-end="url(#arrow)"/>
<path d="M740,730 Q920,540 1100,390" stroke="#6b7280" stroke-width="1.2" fill="none" marker-end="url(#arrow)"/>
<path d="M1340,470 Q1220,410 1100,390" stroke="#6b7280" stroke-width="1.2" fill="none" marker-end="url(#arrow)"/>
<path d="M1220,730 Q1160,540 1100,390" stroke="#6b7280" stroke-width="1.2" fill="none" marker-end="url(#arrow)"/>
<path d="M1580,860 Q1340,605 1100,390" stroke="#6b7280" stroke-width="1.2" fill="none" marker-end="url(#arrow)"/>
<path d="M500,730 Q1040,670 1580,650" stroke="#6b7280" stroke-width="1.2" fill="none" marker-end="url(#arrow)"/>
<path d="M620,860 Q1100,735 1580,650" stroke="#6b7280" stroke-width="1.2" fill="none" marker-end="url(#arrow)"/>
<path d="M860,860 Q1220,735 1580,650" stroke="#6b7280" stroke-width="1.2" fill="none" marker-end="url(#arrow)"/>
<path d="M1580,600 Q1340,540 1100,520" stroke="#6b7280" stroke-width="1.2" fill="none" marker-end="url(#arrow)"/>
<path d="M380,860 Q740,670 1100,520" stroke="#6b7280" stroke-width="1.2" fill="none" marker-end="url(#arrow)"/>
<path d="M1340,600 Q1340,475 1340,390" stroke="#6b7280" stroke-width="1.2" fill="none" marker-end="url(#arrow)"/>
<path d="M1100,470 Q1220,410 1340,390" stroke="#6b7280" stroke-width="1.2" fill="none" marker-end="url(#arrow)"/>
<path d="M860,600 Q1100,475 1340,390" stroke="#6b7280" stroke-width="1.2" fill="none" marker-end="url(#arrow)"/>
<path d="M1580,860 Q1460,605 1340,390" stroke="#6b7280" stroke-width="1.2" fill="none" marker-end="url(#arrow)"/>
<path d="M380,860 Q1160,800 1940,780" stroke="#6b7280" stroke-width="1.2" fill="none" marker-end="url(#arrow)"/>
<path d="M380,860 Q920,800 1460,780" stroke="#6b7280" stroke-width="1.2" fill="none" marker-end="url(#arrow)"/>
<path d="M620,860 Q740,735 860,650" stroke="#6b7280" stroke-width="1.2" fill="none" marker-end="url(#arrow)"/>
<path d="M380,860 Q620,735 860,650" stroke="#6b7280" stroke-width="1.2" fill="none" marker-end="url(#arrow)"/>
<path d="M1460,730 Q1160,670 860,650" stroke="#6b7280" stroke-width="1.2" fill="none" marker-end="url(#arrow)"/>
<path d="M2300,860 Q1400,800 500,780" stroke="#6b7280" stroke-width="1.2" fill="none" marker-end="url(#arrow)"/>
<g><title>Fixed-$n$ asymptotics (stuck)</title><rect x="40" y="860" width="200" height="50" rx="6" fill="#fca5a5" stroke="#dc2626" stroke-width="1.5"/><text x="140" y="881" text-anchor="middle" font-size="11">fixed-n</text><text x="140" y="899" text-anchor="middle" font-size="9" fill="#6b7280">lem · stuck</text></g>
<g><title>Lattice structure (pending)</title><rect x="280" y="860" width="200" height="50" rx="6" fill="#e5e7eb" stroke="#9ca3af" stroke-width="1.5"/><text x="380" y="881" text-anchor="middle" font-size="11">lambda-facts</text><text x="380" y="899" text-anchor="middle" font-size="9" fill="#6b7280">lem · pending</text></g>
<g><title>Cosine-product bound (done)</title><rect x="520" y="860" width="200" height="50" rx="6" fill="#86efac" stroke="#16a34a" stroke-width="1.5"/><text x="620" y="881" text-anchor="middle" font-size="11">psi-sq</text><text x="620" y="899" text-anchor="middle" font-size="9" fill="#6b7280">lem · done</text></g>
<g><title>Gaussian quadratic integral (stuck)</title><rect x="760" y="860" width="200" height="50" rx="6" fill="#fca5a5" stroke="#dc2626" stroke-width="1.5"/><text x="860" y="881" text-anchor="middle" font-size="11">gaussian-quadratic</text><text x="860" y="899" text-anchor="middle" font-size="9" fill="#6b7280">lem · stuck</text></g>
<g><title>Gaussian radial moments (done)</title><rect x="1000" y="860" width="200" height="50" rx="6" fill="#86efac" stroke="#16a34a" stroke-width="1.5"/><text x="1100" y="881" text-anchor="middle" font-size="11">gaussian-radial</text><text x="1100" y="899" text-anchor="middle" font-size="9" fill="#6b7280">lem · done</text></g>
<g><title>Hypercontractive inequality (stuck)</title><rect x="1240" y="860" width="200" height="50" rx="6" fill="#fca5a5" stroke="#dc2626" stroke-width="1.5"/><text x="1340" y="881" text-anchor="middle" font-size="11">hc</text><text x="1340" y="899" text-anchor="middle" font-size="9" fill="#6b7280">lem · stuck</text></g>
<g><title>Core Gaussian mass (done)</title><rect x="1480" y="860" width="200" height="50" rx="6" fill="#86efac" stroke="#16a34a" stroke-width="1.5"/><text x="1580" y="881" text-anchor="middle" font-size="11">inner-core</text><text x="1580" y="899" text-anchor="middle" font-size="9" fill="#6b7280">lem · done</text></g>
<g><title>Positivity of $\RePart\psi$ (done)</title><rect x="1720" y="860" width="200" height="50" rx="6" fill="#86efac" stroke="#16a34a" stroke-width="1.5"/><text x="1820" y="881" text-anchor="middle" font-size="11">realpart</text><text x="1820" y="899" text-anchor="middle" font-size="9" fill="#6b7280">lem · done</text></g>
<g><title>Triangle formula (done)</title><rect x="1960" y="860" width="200" height="50" rx="6" fill="#86efac" stroke="#16a34a" stroke-width="1.5"/><text x="2060" y="881" text-anchor="middle" font-size="11">triangle</text><text x="2060" y="899" text-anchor="middle" font-size="9" fill="#6b7280">lem · done</text></g>
<g><title>Lindeberg comparison (stuck)</title><rect x="2200" y="860" width="200" height="50" rx="6" fill="#fca5a5" stroke="#dc2626" stroke-width="1.5"/><text x="2300" y="881" text-anchor="middle" font-size="11">weak-comparison</text><text x="2300" y="899" text-anchor="middle" font-size="9" fill="#6b7280">lem · stuck</text></g>
<g><title>Gaussian comparison (pending)</title><rect x="400" y="730" width="200" height="50" rx="6" fill="#e5e7eb" stroke="#9ca3af" stroke-width="1.5"/><text x="500" y="751" text-anchor="middle" font-size="11">weak-comparison</text><text x="500" y="769" text-anchor="middle" font-size="9" fill="#6b7280">cor · pending</text></g>
<g><title>Cubic phase bound (pending)</title><rect x="640" y="730" width="200" height="50" rx="6" fill="#e5e7eb" stroke="#9ca3af" stroke-width="1.5"/><text x="740" y="751" text-anchor="middle" font-size="11">cubic</text><text x="740" y="769" text-anchor="middle" font-size="9" fill="#6b7280">lem · pending</text></g>
<g><title>Fourth cumulant (pending)</title><rect x="880" y="730" width="200" height="50" rx="6" fill="#e5e7eb" stroke="#9ca3af" stroke-width="1.5"/><text x="980" y="751" text-anchor="middle" font-size="11">ordered-cycle</text><text x="980" y="769" text-anchor="middle" font-size="9" fill="#6b7280">lem · pending</text></g>
<g><title>Quintic bound (pending)</title><rect x="1120" y="730" width="200" height="50" rx="6" fill="#e5e7eb" stroke="#9ca3af" stroke-width="1.5"/><text x="1220" y="751" text-anchor="middle" font-size="11">quintic</text><text x="1220" y="769" text-anchor="middle" font-size="9" fill="#6b7280">lem · pending</text></g>
<g><title>Residual decomposition (pending)</title><rect x="1360" y="730" width="200" height="50" rx="6" fill="#e5e7eb" stroke="#9ca3af" stroke-width="1.5"/><text x="1460" y="751" text-anchor="middle" font-size="11">residual-decomp</text><text x="1460" y="769" text-anchor="middle" font-size="9" fill="#6b7280">lem · pending</text></g>
<g><title>Log-expansion (pending)</title><rect x="1600" y="730" width="200" height="50" rx="6" fill="#e5e7eb" stroke="#9ca3af" stroke-width="1.5"/><text x="1700" y="751" text-anchor="middle" font-size="11">sixth</text><text x="1700" y="769" text-anchor="middle" font-size="9" fill="#6b7280">lem · pending</text></g>
<g><title>Primary-secondary decomposition (pending)</title><rect x="1840" y="730" width="200" height="50" rx="6" fill="#e5e7eb" stroke="#9ca3af" stroke-width="1.5"/><text x="1940" y="751" text-anchor="middle" font-size="11">primary-secondary</text><text x="1940" y="769" text-anchor="middle" font-size="9" fill="#6b7280">pro · pending</text></g>
<g><title>Odd-cell bound (pending)</title><rect x="760" y="600" width="200" height="50" rx="6" fill="#e5e7eb" stroke="#9ca3af" stroke-width="1.5"/><text x="860" y="621" text-anchor="middle" font-size="11">odd-bound</text><text x="860" y="639" text-anchor="middle" font-size="9" fill="#6b7280">lem · pending</text></g>
<g><title>Peeling identity (pending)</title><rect x="1000" y="600" width="200" height="50" rx="6" fill="#e5e7eb" stroke="#9ca3af" stroke-width="1.5"/><text x="1100" y="621" text-anchor="middle" font-size="11">peeling</text><text x="1100" y="639" text-anchor="middle" font-size="9" fill="#6b7280">lem · pending</text></g>
<g><title>Small-ball decay (pending)</title><rect x="1240" y="600" width="200" height="50" rx="6" fill="#e5e7eb" stroke="#9ca3af" stroke-width="1.5"/><text x="1340" y="621" text-anchor="middle" font-size="11">small-ball</text><text x="1340" y="639" text-anchor="middle" font-size="9" fill="#6b7280">lem · pending</text></g>
<g><title>Far-shell contraction (pending)</title><rect x="1480" y="600" width="200" height="50" rx="6" fill="#e5e7eb" stroke="#9ca3af" stroke-width="1.5"/><text x="1580" y="621" text-anchor="middle" font-size="11">far-shell</text><text x="1580" y="639" text-anchor="middle" font-size="9" fill="#6b7280">pro · pending</text></g>
<g><title>Far-shell integrals (pending)</title><rect x="1000" y="470" width="200" height="50" rx="6" fill="#e5e7eb" stroke="#9ca3af" stroke-width="1.5"/><text x="1100" y="491" text-anchor="middle" font-size="11">far-negligible</text><text x="1100" y="509" text-anchor="middle" font-size="9" fill="#6b7280">cor · pending</text></g>
<g><title>Quartic bounds (pending)</title><rect x="1240" y="470" width="200" height="50" rx="6" fill="#e5e7eb" stroke="#9ca3af" stroke-width="1.5"/><text x="1340" y="491" text-anchor="middle" font-size="11">quartic-bounds</text><text x="1340" y="509" text-anchor="middle" font-size="9" fill="#6b7280">pro · pending</text></g>
<g><title>Primary estimate (pending)</title><rect x="1000" y="340" width="200" height="50" rx="6" fill="#e5e7eb" stroke="#9ca3af" stroke-width="1.5"/><text x="1100" y="361" text-anchor="middle" font-size="11">primary-box</text><text x="1100" y="379" text-anchor="middle" font-size="9" fill="#6b7280">pro · pending</text></g>
<g><title>Residual estimate (pending)</title><rect x="1240" y="340" width="200" height="50" rx="6" fill="#e5e7eb" stroke="#9ca3af" stroke-width="1.5"/><text x="1340" y="361" text-anchor="middle" font-size="11">residual-estimate</text><text x="1340" y="379" text-anchor="middle" font-size="9" fill="#6b7280">pro · pending</text></g>
<g><title>Main asymptotic count (pending)</title><rect x="1120" y="210" width="200" height="50" rx="6" fill="#e5e7eb" stroke="#9ca3af" stroke-width="1.5"/><text x="1220" y="231" text-anchor="middle" font-size="11">main-intro</text><text x="1220" y="249" text-anchor="middle" font-size="9" fill="#6b7280">the · pending</text></g>
<g><title>Uniform counting (pending)</title><rect x="1120" y="80" width="200" height="50" rx="6" fill="#e5e7eb" stroke="#9ca3af" stroke-width="1.5"/><text x="1220" y="101" text-anchor="middle" font-size="11">uniform</text><text x="1220" y="119" text-anchor="middle" font-size="9" fill="#6b7280">cor · pending</text></g>
<rect x="20" y="1005" width="14" height="14" rx="3" fill="#86efac" stroke="#16a34a"/><text x="42" y="1017" font-size="11">done</text>
<rect x="130" y="1005" width="14" height="14" rx="3" fill="#fde047" stroke="#ca8a04"/><text x="152" y="1017" font-size="11">in progress</text>
<rect x="240" y="1005" width="14" height="14" rx="3" fill="#fca5a5" stroke="#dc2626"/><text x="262" y="1017" font-size="11">stuck</text>
<rect x="350" y="1005" width="14" height="14" rx="3" fill="#e5e7eb" stroke="#9ca3af"/><text x="372" y="1017" font-size="11">pending</text>
</svg>